<?xml version="1.0" encoding="UTF-8" standalone="no"?>
<svg
   xmlns:dc="http://purl.org/dc/elements/1.1/"
   xmlns:cc="http://creativecommons.org/ns#"
   xmlns:rdf="http://www.w3.org/1999/02/22-rdf-syntax-ns#"
   xmlns:svg="http://www.w3.org/2000/svg"
   xmlns="http://www.w3.org/2000/svg"
   xmlns:sodipodi="http://sodipodi.sourceforge.net/DTD/sodipodi-0.dtd"
   xmlns:inkscape="http://www.inkscape.org/namespaces/inkscape"
   viewBox="0 0 804 541"
   version="1.1"
   id="svg3299"
   inkscape:version="0.48.0 r9654"
   width="100%"
   height="100%"
   sodipodi:docname="index.svg"
   inkscape:export-filename="/home/felipe/Área de Trabalho/networked_hacklab/puraque/puraque_pontos.png"
   inkscape:export-xdpi="90"
   inkscape:export-ydpi="90">
  <metadata
     id="metadata3389">
    <rdf:RDF>
      <cc:Work
         rdf:about="">
        <dc:format>image/svg+xml</dc:format>
        <dc:type
           rdf:resource="http://purl.org/dc/dcmitype/StillImage" />
        <dc:title />
      </cc:Work>
    </rdf:RDF>
  </metadata>
  <defs
     id="defs3387" />
  <sodipodi:namedview
     pagecolor="#ffffff"
     bordercolor="#666666"
     borderopacity="1"
     objecttolerance="10"
     gridtolerance="10"
     guidetolerance="10"
     inkscape:pageopacity="0"
     inkscape:pageshadow="2"
     inkscape:window-width="1366"
     inkscape:window-height="713"
     id="namedview3385"
     showgrid="false"
     inkscape:zoom="0.9592721"
     inkscape:cx="425.49736"
     inkscape:cy="266.06744"
     inkscape:window-x="0"
     inkscape:window-y="24"
     inkscape:window-maximized="1"
     inkscape:current-layer="layer1" />
  <!-- svg generated using QGIS www.qgis.org -->
  <g
     id="10_08_2011_14;50;54_puraqué_2011-08-10_14-50-54__tracks"
     inkscape:groupmode="layer"
     inkscape:label="10_08_2011_14;50;54_puraqué_2011-08-10_14-50-54__tracks"
     style="display:none"
     sodipodi:insensitive="true">
    <g
       id="g3302">
      <g
         id="10_08_2011_14;50;54_puraqué_2011-08-10_14-50-54__tracks_1"
         style="fill:none;stroke:#89f71e;stroke-width:0.5;stroke-linejoin:round">
        <path
           d="m 172,292 58,-23 9,9 4,-4 18,11 7,5 3,0 2,4 -2,1 -6,1 -7,3 2,-1 2,2 4,2 14,2 9,-1 4,-1 -6,-5 2,-4 11,-6 4,-1 12,-9 7,-2 5,-1 3,1 5,-3 7,5 6,3 2,-1 -6,-2 0,1 3,3 1,1 -3,0 -1,0 -1,0 0,-1 1,-2 -1,0 1,1 0,1 1,0 0,1 9,-1 -1,12 8,-1 5,-3 6,-2 4,-2 4,-1 0,4 3,0 3,-1 1,-2 2,1 1,0 0,1 5,2 3,3 1,8 -2,6 -1,5 0,7 0,7 1,1 0,2 -2,1 -3,2 0,-1 -2,0 2,-1 7,1 -1,-2 -6,-4 1,-7 0,-7 -2,-8 1,-5 -1,-4 4,-5 -1,-6 5,-2 8,1 6,-2 3,-3 5,6 3,4 5,4 1,2 5,3 3,2 2,8 -4,0 3,1 3,2 2,1 2,0 1,0 0,1 1,2 1,1 -1,4 1,4 0,5 2,5 -2,5 -2,7 -2,5 -6,-2 -8,4 -3,4 -4,1 -5,0 -8,-3 -5,-5 -10,-10 -4,-6 -8,-6 -7,-1 6,-4 -4,-7 8,-9 0,-10 5,-3 6,-1 12,-6 9,-1 12,-1 5,4 3,1 0,2 5,1 -2,1 0,-5 1,1 0,-3 1,-8 0,-10 -3,-6 0,-10 0,-6 1,-8 1,-7 2,-7 3,-8 4,-9 1,-7 3,-8 5,-8 0,-4 5,5 -4,5 1,0 1,-2 5,-2 4,0 7,-8 2,1 2,-1 15,-5 9,-6 6,-3 6,0 -2,-6 -2,-6 0,-6 -1,-6 1,-7 -2,-6 0,-5 -1,-9 -1,-7 -3,-4 4,1 4,-2 -9,-8 -1,-5 -1,-5 -3,-8 -2,-6 -7,-1 -8,-1 -7,1 -6,-1 -5,1 -4,-1 -6,1 -8,1 -5,3 -4,2 -3,3 -3,4 5,10 2,7 -1,7 3,6 0,2 0,-2 -1,1 1,2 4,5 1,1 3,1 1,3 6,8 1,3 1,2 -1,13 1,16 3,6 2,-1 2,0 9,0 4,-5 2,1 3,0 3,-3 14,-2 1,-4 4,1 -3,-4 5,-2 4,-4 1,-3 -1,-3 0,-2 -4,-8 -1,3 -1,-1 -2,-7 -4,-7 -1,-8 -5,-8 -2,-6 3,-10 2,-5 -7,-6 -12,-7 1,17 -10,-4 -9,2 -3,2 1,-2 -7,3 -5,-2 -5,0 -4,0 3,5 1,5 1,4 2,4 2,6 2,1 1,1 2,3 4,10 5,9 2,9 4,5 -1,9 -4,9 5,3 2,1 1,0 6,-2 5,0 12,1 5,-2 4,-3 -2,1 -2,0 -1,0 -1,-1 1,0 -4,3 2,-1 2,-1 0,-2 1,-1 0,-1 -1,-1 0,-1 -1,-1 -1,1 1,11 6,1 0,7 5,7 8,1 3,0 0,-1 0,-2 1,0 0,1 -1,0 -1,0 0,1 -2,3 -6,-1 -2,-2 3,0 7,-3 3,-5 2,-6 -1,-5 0,-3 2,1 0,-1 1,-1 0,-4 0,-1 -4,-9 -1,-8 -1,-3 1,-8 6,-8 2,-3 0,-8 1,-6 -6,0 3,-7 3,-5 0,-5 0,-2 2,-5 -10,-12 -6,-9 -7,-7 -5,-12 1,-6 -4,-9 -5,-6 -6,-3 -4,1 -7,0 -10,4 -9,1 -9,1 -6,4 -9,1 -7,3 -10,4 -10,4 -7,1 -6,0 -2,3 -2,2 -4,0 -1,-1 -5,0 -7,2 -7,4 -6,4 -4,2 -10,-3 -5,1 -9,1 -6,5 -5,7 -2,10 -6,6 -18,2 -12,1 -12,2 -13,4 -6,5 -7,5 -10,5 -8,4 -7,2 -7,3 -7,2 -10,2 -10,2 -8,5 -10,2 7,-1 0,-1 -1,0 0,-1 2,1 3,3 1,2 -3,-2 -2,-1 -1,-1 -1,-1 1,0 0,-2 -2,0 0,-1 2,2 5,4 6,6 4,6 5,7 4,5 2,4 -2,4 -2,6 7,-3 -2,0 1,0 1,0 7,3 5,1 1,3 8,0 8,-1 7,0 3,-2 0,-1 2,-1 4,2 7,-3 3,-1 8,-3 6,-1 5,-5 1,-6 1,-10 -1,-13 3,-8 -1,-8 -3,-1 -1,-4 -7,3 -6,3 -10,4 -6,3 -6,6 -10,1 -4,4 -4,3 -8,0 -10,2 -5,1 -4,1 3,12 0,6 2,5 8,3 1,-1 -2,6 0,6 -3,3 5,-5 5,-4 5,1 4,1 7,-1 6,1 8,1 5,-1 -1,1 2,0 2,-2 -8,2 2,2 2,2 1,0 -2,0 -6,5 -9,5 -9,7 -5,-1 -3,-4 -3,-7 1,-1 4,0 0,-1 1,1 13,-2 3,0 -1,2 1,0 0,1 0,-1 0,1 0,-1 10,-3 7,0 8,0 3,2 3,1 4,-2 2,-2 2,-2 1,-1 1,-2 1,-1 -1,-2 0,-1 1,-1 1,-1 0,-2 -2,0 -7,0 -6,0 -3,4 0,5 -5,1 -1,4 -5,2 -8,5 -7,8 -11,2 -11,-3 2,-4 3,-2 -2,-3 2,-12 -2,-12 -3,-7 -2,-6 1,-1 3,1 -1,0 1,-1 0,-1 -3,-9 -5,-1 -7,-5 0,-3 2,-3 -2,1 1,0 0,-1 9,-5 9,-2 8,1 6,4 5,-3 4,-1 1,-1 1,-1 1,-2 2,-1 6,0 1,0 1,-1 3,-2 3,0 1,1 2,0 6,-1 2,3 -3,-3 -5,-1 5,-2 -1,-2 -11,2 -6,3 -6,4 -8,4 -7,4 -6,4 -9,2 -10,1 -14,0 -12,0 -11,0 0,1 2,0 1,5 -1,7 0,11 1,8 6,9 11,5 4,12 6,12 3,7 1,9 6,7 3,6 4,10 5,7 1,6 5,8 5,8 -1,11 2,6 5,9 0,5 4,9 2,6 4,9 5,10 -3,7 7,6 0,7 7,7 -2,14 0,8 4,5 3,5 7,4 5,6 5,8 3,6 3,7 2,4 3,5 5,7 0,11 4,4 9,2 2,6 1,4 4,4 7,6 4,5 6,3 3,9 -1,8 -2,10 4,8 2,6 -1,5 -2,-1 0,-4 -1,1 1,0 2,-1 2,1 2,-2 3,-3 2,-6 4,-3 5,0 5,2 6,-1 5,-3 7,-4 8,-2 7,-3 6,-1 5,-2 7,-2 10,0 10,-3 10,-2 9,-7 2,-6 11,-6 2,-5 1,-2 4,-6 5,0 4,-4 5,2 3,2 0,4 7,6 13,-8 1,-4 4,0 8,2 6,1 3,-2 4,-1 0,-2 2,-8 -6,-6 2,-3 9,-6 5,-5 6,1 9,3 4,4 2,3 2,4 -4,-2 3,0 -1,-1 1,1 10,3 3,0 3,-4 5,-3 6,-4 7,-1 3,-3 2,-1 0,-2 1,-5 -3,-3 7,3 0,-2 9,0 0,5 4,4 1,0 -4,1 -1,0 2,0 0,-1 -1,0 -1,0 -2,0 -1,-1 -2,-3 -4,-2 -1,-3 -3,-6 -2,-6 -2,-8 0,-4 -3,-7 -3,-3 -2,-8 1,-6 -2,-6 -12,-18 -5,-6 -4,-9 1,-12 -6,-11 -9,-8 -2,-7 -8,-6 -6,-9 -7,-14 4,-8 -3,-7 -4,-4 4,1 1,-1 0,-1 3,-6 1,-7 -2,-5 -3,-6 -2,-11 2,-7 0,-8 -2,-10 2,-9 -4,-2 -3,-6 -3,-7 -1,-7 -6,-5 -6,-6 -4,-7 0,-5 -8,-9 -1,-4 -2,-6 -3,-6 -3,-8 -5,-11 -3,-8 1,-2 -6,-10 -5,-7 -3,-8 -2,-6 -3,-9 -4,-6 -3,-6 1,-4 -1,-2 0,-1 0,1 1,1 0,1 1,1 1,1 -3,4 6,10 0,6 1,4 8,6 0,5 4,5 -1,6 7,5 1,9 2,6 10,8 7,6 4,4 4,6 10,-2 -8,11 -1,17 3,5 1,9 0,6 3,7 -1,7 1,2 -1,0 -6,-2 1,1 0,3 -1,5 1,4 8,5 4,6 3,8 2,5 3,6 6,3 3,3 1,8 3,7 2,4 4,4 0,5 3,7 0,5 2,10 4,5 8,9 3,13 5,6 8,7 11,7 4,9 9,7 -7,19 -2,9 4,7 2,7 0,11 4,8 3,8 3,5 3,5 2,6 -2,9 1,-3 0,-1 -6,-1 -1,-2 -2,-5 -8,2 -3,2 -6,4 -4,5 2,7 0,7 -3,3 -3,4 -4,4 -2,0 -5,3 -6,1 -4,1 -4,2 -2,-5 -2,-2 -1,-1 -1,0 -4,3 -3,2 -4,1 -4,-1 -8,1 -4,4 -3,0 -5,1 -4,2 4,0 -2,2 -6,2 2,-2 -2,0 0,-1 -8,-1 -8,-2 -7,1 -9,-3 -6,0 -9,-2 -12,1 -8,2 -6,-3 -6,3 -13,12 -8,6 -10,5 -7,13 -7,2 -6,4 -6,2 -7,3 -12,0 -9,3 -7,4 -1,6 0,-2 1,1 2,-1 1,0 2,0 2,0 1,1 -1,-1 -3,0 -4,3 -2,6 -7,0 -2,1 -3,-1 -3,-2 -4,-3 -6,-1 2,-6 -2,-6 -1,-7 -2,-5 2,0 0,3 -2,-3 -4,-7 -2,-6 -1,-5 -2,-8 -1,-6 -4,-5 -3,-4 1,-2 -5,-5 0,-9 -1,-8 0,-5 -1,-2 1,0 -2,-1 0,2 -1,1 -1,1 -1,-1 0,-1 0,1 -2,0 -1,-3 -3,-7 -2,-7 -1,-6 -2,-7 0,-7 3,-7 3,-5 6,-1 9,-2 7,-6 4,-4 10,-5 4,0 5,0 -2,-3 -5,1 -2,0 2,1 -1,-2 1,0 2,-1 1,-1 -1,0 1,-11 0,1 -1,20 9,9 0,2 4,9 4,5 6,7 -2,9 0,3 2,4 -2,3 2,3 -1,1 -1,1 3,-4 8,2 16,12 0,-3 8,-1 -1,5 -2,0 0,-1 3,-2 1,-1 0,-2 0,-1 1,-1 2,0 0,4 4,10 6,-4 1,-2 0,-6 -2,-6 0,-7 -1,-3 -2,-3 -4,3 -3,-1 -1,1 -4,9 1,0 -6,8 1,7 2,4 -1,5 1,-4 -4,-3 -3,-2 -3,-3 -4,-2 -2,-6 -1,-6 -1,-5 -3,-6 0,-6 5,0 3,0 1,-1 1,-2 0,-1 0,-1 0,-1 -1,0 1,-1 1,-1 1,0 0,-1 0,-5 2,-2 -1,-5 0,-9 2,-8 2,-8 3,-7 -7,10 -3,0 -1,2 -4,1 -5,1 -1,3 0,4 0,7 2,5 4,4 -2,-10 1,-4 7,-5 0,-3 -1,-7 2,-5 -6,-7 -7,-7 -8,1 -5,1 -7,-2 -8,5 -4,3 -3,4 -7,5 -9,4 -11,5 -11,4 -6,4 -5,4 -5,1 -5,-5 -4,-5 -1,-11 -2,-6 -2,-7 -5,-6 -7,-5 -3,-4 -3,-4 -1,-7 -4,-7 -9,-7 1,-7 -4,-8 0,-6 2,-9 7,-11 13,-7 7,-5 6,-4 7,-6 8,-4 4,-5 6,-4 4,-4 3,-2 1,1 -1,-2 0,1 1,1 0,1 1,0 1,0 1,4 3,4 0,2 4,7 5,5 4,3 12,6 2,9 4,6 3,6 2,5 2,5 1,9 -5,2 -3,7 -1,6 2,4 3,1 0,-2 6,0 5,3 6,-1 6,-2 3,-3 2,0 1,-7 3,-3 6,-1 5,-3 5,-4 -1,-9 1,-3 6,1 -1,-2 3,-4 -1,-6 -2,-2 -1,-2 4,6 1,5 4,2 -2,0 -1,-1 1,-1 -1,0 0,-1 -2,-9 -1,-3 -4,-4 -2,-3 -4,-4 -1,-5 -6,-7 -11,-3 -4,-2 -2,-2 -7,-1 2,-8 8,-5 7,-5 3,-7 4,-4 0,1 -1,2 2,0 6,-2 5,-1 -4,6 2,1 4,2 3,4 5,3 5,4 4,5 1,2 5,2 6,4 6,1 5,1 5,-3 2,-2 4,-4 4,-3 3,-4 -2,-5 0,-7 0,-5 1,-6 0,-6 -2,-7 -3,-4 -2,-5 -3,-2 0,-3 -1,-3 -4,-6 2,2 0,1 -2,6 -5,3 -10,4 -6,1 -6,0 -5,6 -2,4 3,8 1,8 0,3 0,2 -11,-1 -10,-4 -6,-2 -5,-3 -1,1 -2,1 -2,-1 -7,0 -4,-3 -2,-5 -2,-6 -2,-5 -9,-4 -8,-1 -3,1 -6,0 -3,2 -5,-5 -8,1 -3,-4 -5,-3 -3,-1 1,2 -1,2 -1,5 -5,2 -7,1 -6,4 0,5 3,6 3,6 5,6 3,5 4,1 4,1 5,1 0,3 4,4 1,6 0,10 -2,6 3,6 2,9 1,-1 2,1 5,5 4,4 4,4 -2,10 5,9 -2,7 0,7 -1,6 6,2 1,-1 3,-3 7,-3 6,0 6,-4 1,-4 5,-6 7,-5 1,-3 -1,-8 0,-8 0,-2 0,-1 3,0 1,0 4,2 0,-2 -1,-3 -3,-4 -2,-3 -2,-3 -2,-7 -2,-4 2,-7 2,-6 3,-7 4,-5 9,1 7,0 5,-1 6,-1 5,-2 8,6 10,0 9,4 11,4 1,-1 4,5 7,3 3,5 -1,4 4,7 3,5 6,-4 5,-4 1,-1 -1,-2"
           id="path3305"
           inkscape:connector-curvature="0" />
      </g>
    </g>
  </g>
  <g
     id="10_08_2011_14;50;54_puraqué_2011-08-10_14-50-54__waypoints"
     inkscape:groupmode="layer"
     inkscape:label="10_08_2011_14;50;54_puraqué_2011-08-10_14-50-54__waypoints"
     style="display:none"
     sodipodi:insensitive="true">
    <g
       id="g3308">
      <g
         id="10_08_2011_14;50;54_puraqué_2011-08-10_14-50-54__waypoints_1"
         style="fill:#54bb36;stroke:#000000;stroke-width:0.5;stroke-linejoin:round">
        <circle
           cx="345"
           cy="281"
           r="5"
           id="circle3311"
           sodipodi:cx="345"
           sodipodi:cy="281"
           sodipodi:rx="5"
           sodipodi:ry="5"
           style="fill:#54bb36;stroke:#000000;stroke-width:0.5" />
      </g>
      <g
         id="10_08_2011_14;50;54_puraqué_2011-08-10_14-50-54__waypoints_2"
         style="fill:#54bb36;stroke:#000000;stroke-width:0.5;stroke-linejoin:round">
        <circle
           cx="499"
           cy="163"
           r="5"
           id="circle3314"
           sodipodi:cx="499"
           sodipodi:cy="163"
           sodipodi:rx="5"
           sodipodi:ry="5"
           style="fill:#54bb36;stroke:#000000;stroke-width:0.5" />
      </g>
      <g
         id="10_08_2011_14;50;54_puraqué_2011-08-10_14-50-54__waypoints_3"
         style="fill:#54bb36;stroke:#000000;stroke-width:0.5;stroke-linejoin:round">
        <circle
           cx="520"
           cy="184"
           r="5"
           id="circle3317"
           sodipodi:cx="520"
           sodipodi:cy="184"
           sodipodi:rx="5"
           sodipodi:ry="5"
           style="fill:#54bb36;stroke:#000000;stroke-width:0.5" />
      </g>
      <g
         id="10_08_2011_14;50;54_puraqué_2011-08-10_14-50-54__waypoints_4"
         style="fill:#54bb36;stroke:#000000;stroke-width:0.5;stroke-linejoin:round">
        <circle
           cx="179"
           cy="129"
           r="5"
           id="circle3320"
           sodipodi:cx="179"
           sodipodi:cy="129"
           sodipodi:rx="5"
           sodipodi:ry="5"
           style="fill:#54bb36;stroke:#000000;stroke-width:0.5" />
      </g>
      <g
         id="10_08_2011_14;50;54_puraqué_2011-08-10_14-50-54__waypoints_5"
         style="fill:#54bb36;stroke:#000000;stroke-width:0.5;stroke-linejoin:round">
        <circle
           cx="253"
           cy="170"
           r="5"
           id="circle3323"
           sodipodi:cx="253"
           sodipodi:cy="170"
           sodipodi:rx="5"
           sodipodi:ry="5"
           style="fill:#54bb36;stroke:#000000;stroke-width:0.5" />
      </g>
      <g
         id="10_08_2011_14;50;54_puraqué_2011-08-10_14-50-54__waypoints_6"
         style="fill:#54bb36;stroke:#000000;stroke-width:0.5;stroke-linejoin:round">
        <circle
           cx="226"
           cy="191"
           r="5"
           id="circle3326"
           sodipodi:cx="226"
           sodipodi:cy="191"
           sodipodi:rx="5"
           sodipodi:ry="5"
           style="fill:#54bb36;stroke:#000000;stroke-width:0.5" />
      </g>
      <g
         id="10_08_2011_14;50;54_puraqué_2011-08-10_14-50-54__waypoints_7"
         style="fill:#54bb36;stroke:#000000;stroke-width:0.5;stroke-linejoin:round">
        <circle
           cx="237"
           cy="176"
           r="5"
           id="circle3329"
           sodipodi:cx="237"
           sodipodi:cy="176"
           sodipodi:rx="5"
           sodipodi:ry="5"
           style="fill:#54bb36;stroke:#000000;stroke-width:0.5" />
      </g>
      <g
         id="10_08_2011_14;50;54_puraqué_2011-08-10_14-50-54__waypoints_8"
         style="fill:#54bb36;stroke:#000000;stroke-width:0.5;stroke-linejoin:round">
        <circle
           cx="262"
           cy="175"
           r="5"
           id="circle3332"
           sodipodi:cx="262"
           sodipodi:cy="175"
           sodipodi:rx="5"
           sodipodi:ry="5"
           style="fill:#54bb36;stroke:#000000;stroke-width:0.5" />
      </g>
      <g
         id="10_08_2011_14;50;54_puraqué_2011-08-10_14-50-54__waypoints_9"
         style="fill:#54bb36;stroke:#000000;stroke-width:0.5;stroke-linejoin:round">
        <circle
           cx="213"
           cy="142"
           r="5"
           id="circle3335"
           sodipodi:cx="213"
           sodipodi:cy="142"
           sodipodi:rx="5"
           sodipodi:ry="5"
           style="fill:#54bb36;stroke:#000000;stroke-width:0.5" />
      </g>
      <g
         id="10_08_2011_14;50;54_puraqué_2011-08-10_14-50-54__waypoints_10"
         style="fill:#54bb36;stroke:#000000;stroke-width:0.5;stroke-linejoin:round">
        <circle
           cx="201"
           cy="126"
           r="5"
           id="circle3338"
           sodipodi:cx="201"
           sodipodi:cy="126"
           sodipodi:rx="5"
           sodipodi:ry="5"
           style="fill:#54bb36;stroke:#000000;stroke-width:0.5" />
      </g>
      <g
         id="10_08_2011_14;50;54_puraqué_2011-08-10_14-50-54__waypoints_11"
         style="fill:#54bb36;stroke:#000000;stroke-width:0.5;stroke-linejoin:round">
        <circle
           cx="234"
           cy="118"
           r="5"
           id="circle3341"
           sodipodi:cx="234"
           sodipodi:cy="118"
           sodipodi:rx="5"
           sodipodi:ry="5"
           style="fill:#54bb36;stroke:#000000;stroke-width:0.5" />
      </g>
      <g
         id="10_08_2011_14;50;54_puraqué_2011-08-10_14-50-54__waypoints_12"
         style="fill:#54bb36;stroke:#000000;stroke-width:0.5;stroke-linejoin:round">
        <circle
           cx="254"
           cy="109"
           r="5"
           id="circle3344"
           sodipodi:cx="254"
           sodipodi:cy="109"
           sodipodi:rx="5"
           sodipodi:ry="5"
           style="fill:#54bb36;stroke:#000000;stroke-width:0.5" />
      </g>
      <g
         id="10_08_2011_14;50;54_puraqué_2011-08-10_14-50-54__waypoints_13"
         style="fill:#54bb36;stroke:#000000;stroke-width:0.5;stroke-linejoin:round">
        <circle
           cx="342"
           cy="524"
           r="5"
           id="circle3347"
           sodipodi:cx="342"
           sodipodi:cy="524"
           sodipodi:rx="5"
           sodipodi:ry="5"
           style="fill:#54bb36;stroke:#000000;stroke-width:0.5" />
      </g>
      <g
         id="10_08_2011_14;50;54_puraqué_2011-08-10_14-50-54__waypoints_14"
         style="fill:#54bb36;stroke:#000000;stroke-width:0.5;stroke-linejoin:round">
        <circle
           cx="628"
           cy="423"
           r="5"
           id="circle3350"
           sodipodi:cx="628"
           sodipodi:cy="423"
           sodipodi:rx="5"
           sodipodi:ry="5"
           style="fill:#54bb36;stroke:#000000;stroke-width:0.5" />
      </g>
      <g
         id="10_08_2011_14;50;54_puraqué_2011-08-10_14-50-54__waypoints_15"
         style="fill:#54bb36;stroke:#000000;stroke-width:0.5;stroke-linejoin:round">
        <circle
           cx="468"
           cy="15"
           r="5"
           id="circle3353"
           sodipodi:cx="468"
           sodipodi:cy="15"
           sodipodi:rx="5"
           sodipodi:ry="5"
           style="fill:#54bb36;stroke:#000000;stroke-width:0.5" />
      </g>
      <g
         id="10_08_2011_14;50;54_puraqué_2011-08-10_14-50-54__waypoints_16"
         style="fill:#54bb36;stroke:#000000;stroke-width:0.5;stroke-linejoin:round">
        <circle
           cx="350"
           cy="517"
           r="5"
           id="circle3356"
           sodipodi:cx="350"
           sodipodi:cy="517"
           sodipodi:rx="5"
           sodipodi:ry="5"
           style="fill:#54bb36;stroke:#000000;stroke-width:0.5" />
      </g>
      <g
         id="10_08_2011_14;50;54_puraqué_2011-08-10_14-50-54__waypoints_17"
         style="fill:#54bb36;stroke:#000000;stroke-width:0.5;stroke-linejoin:round">
        <circle
           cx="298"
           cy="423"
           r="5"
           id="circle3359"
           sodipodi:cx="298"
           sodipodi:cy="423"
           sodipodi:rx="5"
           sodipodi:ry="5"
           style="fill:#54bb36;stroke:#000000;stroke-width:0.5" />
      </g>
      <g
         id="10_08_2011_14;50;54_puraqué_2011-08-10_14-50-54__waypoints_18"
         style="fill:#54bb36;stroke:#000000;stroke-width:0.5;stroke-linejoin:round">
        <circle
           cx="328"
           cy="354"
           r="5"
           id="circle3362"
           sodipodi:cx="328"
           sodipodi:cy="354"
           sodipodi:rx="5"
           sodipodi:ry="5"
           style="fill:#54bb36;stroke:#000000;stroke-width:0.5" />
      </g>
      <g
         id="10_08_2011_14;50;54_puraqué_2011-08-10_14-50-54__waypoints_19"
         style="fill:#54bb36;stroke:#000000;stroke-width:0.5;stroke-linejoin:round">
        <circle
           cx="351"
           cy="411"
           r="5"
           id="circle3365"
           sodipodi:cx="351"
           sodipodi:cy="411"
           sodipodi:rx="5"
           sodipodi:ry="5"
           style="fill:#54bb36;stroke:#000000;stroke-width:0.5" />
      </g>
      <g
         id="10_08_2011_14;50;54_puraqué_2011-08-10_14-50-54__waypoints_20"
         style="fill:#54bb36;stroke:#000000;stroke-width:0.5;stroke-linejoin:round">
        <circle
           cx="383"
           cy="430"
           r="5"
           id="circle3368"
           sodipodi:cx="383"
           sodipodi:cy="430"
           sodipodi:rx="5"
           sodipodi:ry="5"
           style="fill:#54bb36;stroke:#000000;stroke-width:0.5" />
      </g>
      <g
         id="10_08_2011_14;50;54_puraqué_2011-08-10_14-50-54__waypoints_21"
         style="fill:#54bb36;stroke:#000000;stroke-width:0.5;stroke-linejoin:round">
        <circle
           cx="364"
           cy="398"
           r="5"
           id="circle3371"
           sodipodi:cx="364"
           sodipodi:cy="398"
           sodipodi:rx="5"
           sodipodi:ry="5"
           style="fill:#54bb36;stroke:#000000;stroke-width:0.5" />
      </g>
      <g
         id="10_08_2011_14;50;54_puraqué_2011-08-10_14-50-54__waypoints_22"
         style="fill:#54bb36;stroke:#000000;stroke-width:0.5;stroke-linejoin:round">
        <circle
           cx="368"
           cy="397"
           r="5"
           id="circle3374"
           sodipodi:cx="368"
           sodipodi:cy="397"
           sodipodi:rx="5"
           sodipodi:ry="5"
           style="fill:#54bb36;stroke:#000000;stroke-width:0.5" />
      </g>
      <g
         id="10_08_2011_14;50;54_puraqué_2011-08-10_14-50-54__waypoints_23"
         style="fill:#54bb36;stroke:#000000;stroke-width:0.5;stroke-linejoin:round">
        <circle
           cx="287"
           cy="217"
           r="5"
           id="circle3377"
           sodipodi:cx="287"
           sodipodi:cy="217"
           sodipodi:rx="5"
           sodipodi:ry="5"
           style="fill:#54bb36;stroke:#000000;stroke-width:0.5" />
      </g>
      <g
         id="10_08_2011_14;50;54_puraqué_2011-08-10_14-50-54__waypoints_24"
         style="fill:#54bb36;stroke:#000000;stroke-width:0.5;stroke-linejoin:round">
        <circle
           cx="437"
           cy="205"
           r="5"
           id="circle3380"
           sodipodi:cx="437"
           sodipodi:cy="205"
           sodipodi:rx="5"
           sodipodi:ry="5"
           style="fill:#54bb36;stroke:#000000;stroke-width:0.5" />
      </g>
    </g>
  </g>
  <!-- QGIS extent for clipping, eg in Inkscape -->
  <g
     id="qgisviewbox"
     inkscape:groupmode="layer"
     inkscape:label="qgisviewbox"
     style="fill:none;stroke:#ff0000;stroke-width:1;display:none">
    <path
       d="M 0,539 801,539 801,0 0,0 0,539"
       id="path3383"
       inkscape:connector-curvature="0" />
  </g>
  <g
     inkscape:groupmode="layer"
     id="layer1"
     inkscape:label="planta"
     style="display:inline">
    <rect
       style="opacity:0.81761008;fill:#00ff00;fill-opacity:1;stroke:none"
       id="rect3084"
       width="591.90967"
       height="544.1626"
       x="129.54253"
       y="2.8512621" />
    <rect
       style="opacity:0.81761008000000002;fill:#ffffff;fill-opacity:1;stroke:#000000"
       id="rect3764"
       width="319.77594"
       height="435.9679"
       x="120.81652"
       y="179.08665"
       transform="matrix(0.93942665,-0.34275002,0.34275002,0.93942665,0,0)" />
    <rect
       style="opacity:0.81761008000000002;fill:#803300;fill-opacity:1;stroke:none"
       id="rect3746"
       width="95.079903"
       height="61.021431"
       x="231.24075"
       y="-432.26703"
       transform="matrix(0.35801228,0.93371688,-0.93371688,0.35801228,0,0)" />
    <g
       id="g3506"
       transform="matrix(0.45558697,0,0,0.45558697,277.47212,408.80904)">
      <path
         inkscape:connector-curvature="0"
         id="path3467"
         d="m 718.69187,186.51039 9.49377,-35.43125 9.50803,35.48446 -9.68323,-5.59061 z"
         style="fill:#000000;stroke:none" />
      <text
         sodipodi:linespacing="125%"
         id="text3469"
         y="144.53821"
         x="718.0788"
         style="font-size:25.23032761px;font-style:normal;font-weight:normal;line-height:125%;letter-spacing:0px;word-spacing:0px;fill:#000000;fill-opacity:1;stroke:none;font-family:Sans"
         xml:space="preserve"><tspan
           y="144.53821"
           x="718.0788"
           id="tspan3471"
           sodipodi:role="line">N</tspan></text>
    </g>
    <text
       xml:space="preserve"
       style="font-size:14px;font-style:normal;font-weight:normal;line-height:125%;letter-spacing:0px;word-spacing:0px;fill:#000000;fill-opacity:1;stroke:none;font-family:Sans"
       x="341.71277"
       y="509.46948"
       id="text3429"
       sodipodi:linespacing="125%"><tspan
         sodipodi:role="line"
         id="tspan3431"
         x="341.71277"
         y="509.46948">Lixo</tspan></text>
    <path
       sodipodi:nodetypes="ccscccccccc"
       style="fill:#008000;stroke:#000000;stroke-width:1px;stroke-linecap:butt;stroke-linejoin:miter;stroke-opacity:1"
       d="m 327.59516,361.75865 -0.468,-20.5917 c 0,0 4.67993,-6.5519 7.48789,-7.01989 2.80796,-0.46799 12.63582,1.87197 12.63582,1.87197 l 12.63581,-1.40398 6.08391,7.0199 3.72877,12.09195 -11.41154,12.16664 -6.73279,15.78919 c -5.86298,5.11642 -2.36459,-4.52332 -14.17754,-5.67424 z"
       id="path3427"
       inkscape:connector-curvature="0" />
    <text
       sodipodi:linespacing="125%"
       id="text3433"
       y="333.97147"
       x="274.48157"
       style="font-size:14px;font-style:normal;font-weight:normal;line-height:125%;letter-spacing:0px;word-spacing:0px;fill:#008000;fill-opacity:1;stroke:none;font-family:Sans"
       xml:space="preserve"><tspan
         y="333.97147"
         x="274.48157"
         id="tspan3435"
         sodipodi:role="line">Árvore</tspan><tspan
         y="351.47147"
         x="274.48157"
         sodipodi:role="line"
         id="tspan3437">Grande</tspan></text>
    <g
       id="g3523">
      <path
         inkscape:connector-curvature="0"
         id="path3423"
         d="m 387.49827,326.19118 -0.93599,-14.50779 4.21194,-16.84775 7.95588,-7.95588 14.97578,-6.55191 16.37976,4.67994 10.76384,12.16782 6.5519,12.16782 4.21194,22.93166 -4.21194,12.16782 -13.1038,8.42387 -12.16782,1.87197 -12.63581,-3.74394 -11.23184,-9.82786 -6.08391,-7.48788 z"
         style="fill:none;stroke:#552200;stroke-width:1px;stroke-linecap:butt;stroke-linejoin:miter;stroke-opacity:1" />
      <text
         sodipodi:linespacing="125%"
         id="text3439"
         y="314.98669"
         x="387.23004"
         style="font-size:14px;font-style:normal;font-weight:normal;line-height:125%;letter-spacing:0px;word-spacing:0px;fill:#552200;fill-opacity:1;stroke:none;font-family:Sans"
         xml:space="preserve"><tspan
           y="314.98669"
           x="387.23004"
           sodipodi:role="line"
           id="tspan3443">Círculo</tspan><tspan
           id="tspan3447"
           y="332.48669"
           x="387.23004"
           sodipodi:role="line">de Pedras</tspan></text>
    </g>
    <path
       style="fill:#008000;stroke:#000000;stroke-width:1px;stroke-linecap:butt;stroke-linejoin:miter;stroke-opacity:1"
       d="m 292.02768,209.6609 -12.63581,-2.80796 -14.97578,-23.86765 5.14792,-9.35986 14.50779,-2.33996 4.21194,-8.42388 6.08391,1.40398 2.80796,5.14792 8.89186,0.93599 4.67994,4.67993 14.97577,-0.46799 13.10381,5.14792 c 0,0 9.35986,14.50779 12.63581,15.44377 3.27595,0.93599 21.52768,5.61592 21.52768,5.61592 l 17.31575,0 1.87197,-21.52768 17.78374,-6.08391 20.59169,-8.42388 c 0,0 4.67993,10.29585 5.61592,13.10381 0.93599,2.80796 5.14792,21.52768 5.14792,21.52768 l 0,22.46367 -10.76384,4.67993 -30.88754,-1.40398 -9.82785,-10.76384 -10.29585,-13.10381 -18.71973,2.80796 -12.16782,14.03979 c 0,0 -5.61591,9.35987 -3.74394,9.82786 1.87197,0.46799 17.78374,7.48789 17.78374,7.48789 l 10.29584,7.48789 5.14793,12.16782 6.08391,19.65571 c 0,0 -7.95588,8.42387 -10.29585,11.23183 -2.33996,2.80796 -21.52768,22.46367 -21.52768,22.46367 0,0 -16.37976,3.27595 -19.18772,3.27595 -2.80796,0 -9.82785,-9.82785 -9.82785,-9.82785 l 1.87197,-29.48357 -7.0199,-17.78374 -20.1237,-16.84775 c 0,0 -1.87197,-8.42387 -1.87197,-11.23183 0,-2.80796 -0.46799,-11.69983 -0.46799,-11.69983 z"
       id="path3425"
       inkscape:connector-curvature="0" />
    <text
       sodipodi:linespacing="125%"
       id="text3449"
       y="207.40048"
       x="295.16107"
       style="font-size:14px;font-style:normal;font-weight:normal;line-height:125%;letter-spacing:0px;word-spacing:0px;fill:#ffffff;fill-opacity:1;stroke:none;font-family:Sans"
       xml:space="preserve"><tspan
         id="tspan3453"
         y="207.40048"
         x="295.16107"
         sodipodi:role="line">Cajueiros</tspan></text>
    <text
       xml:space="preserve"
       style="font-size:14px;font-style:normal;font-weight:normal;line-height:125%;letter-spacing:0px;word-spacing:0px;fill:#ffffff;fill-opacity:1;stroke:none;font-family:Sans"
       x="448.26453"
       y="132.91772"
       id="text3457"
       sodipodi:linespacing="125%"><tspan
         sodipodi:role="line"
         x="448.26453"
         y="132.91772"
         id="tspan3459">Barracão</tspan></text>
    <rect
       style="opacity:0.81761008;fill:#803300;fill-opacity:1;stroke:none;display:inline"
       id="rect3721"
       width="88.527512"
       height="50.987362"
       x="140.06239"
       y="193.03474"
       transform="matrix(0.94140281,-0.33728438,0.33728438,0.94140281,0,0)" />
    <text
       sodipodi:linespacing="125%"
       id="text3461"
       y="140.15909"
       x="215.50589"
       style="font-size:14px;font-style:normal;font-weight:normal;line-height:125%;letter-spacing:0px;word-spacing:0px;fill:#ffffff;fill-opacity:1;stroke:none;font-family:Sans"
       xml:space="preserve"><tspan
         id="tspan3463"
         y="140.15909"
         x="215.50589"
         sodipodi:role="line">Telecentro/</tspan><tspan
         y="157.65909"
         x="215.50589"
         sodipodi:role="line"
         id="tspan3465">Estúdio</tspan></text>
    <path
       style="fill:#803300;stroke:#000000;stroke-width:1px;stroke-linecap:butt;stroke-linejoin:miter;stroke-opacity:1"
       d="m 379.91606,419.19139 c 0.22641,0.90564 15.39589,18.79204 15.39589,18.79204 l 4.30179,-6.33948 -5.20744,-26.03716 -7.24512,0.90564 -4.75461,6.33948 z"
       id="path3769"
       inkscape:connector-curvature="0" />
    <text
       xml:space="preserve"
       style="font-size:14px;font-style:normal;font-weight:normal;line-height:125%;letter-spacing:0px;word-spacing:0px;fill:#803300;fill-opacity:1;stroke:none;font-family:Sans"
       x="396.29016"
       y="419.55447"
       id="text3775"
       sodipodi:linespacing="125%"><tspan
         id="tspan3779"
         sodipodi:role="line"
         x="396.29016"
         y="419.55447">Tijolos</tspan></text>
    <path
       style="fill:#aa4400;stroke:#000000;stroke-width:1px;stroke-linecap:butt;stroke-linejoin:miter;stroke-opacity:1"
       d="m 360.4448,384.09784 3.62256,-15.84871 c 0,0 5.20743,-10.64127 5.66025,-11.54691 0.45282,-0.90564 7.92435,-13.35819 8.15076,-10.86768 0.22641,2.49051 0.22641,10.86768 0.22641,10.86768 l -2.94333,9.73563 c 0,0 -2.71692,11.77332 -2.2641,14.26384 0.45282,2.49051 0.45282,7.24512 -0.45282,7.01871 -0.90564,-0.22641 -11.99973,-3.62256 -11.99973,-3.62256 z"
       id="path3783"
       inkscape:connector-curvature="0" />
    <text
       sodipodi:linespacing="125%"
       id="text3785"
       y="375.85733"
       x="377.27173"
       style="font-size:14px;font-style:normal;font-weight:normal;line-height:125%;letter-spacing:0px;word-spacing:0px;fill:#803300;fill-opacity:1;stroke:none;font-family:Sans"
       xml:space="preserve"><tspan
         y="375.85733"
         x="377.27173"
         sodipodi:role="line"
         id="tspan3787">Pedras</tspan></text>
    <path
       style="fill:#ffe680;stroke:#000000;stroke-width:1px;stroke-linecap:butt;stroke-linejoin:miter;stroke-opacity:1"
       d="m 348.44506,406.51243 c -0.22641,-1.13205 0.67924,-14.26383 0.67924,-14.26383 0,0 -2.49052,-1.13205 -2.49052,-2.94333 0,-1.81128 10.18846,-4.5282 11.32051,-4.07538 1.13205,0.45282 11.09409,4.5282 11.09409,4.5282 0,0 -3.84897,6.11307 -3.84897,7.47153 0,1.35846 -3.16974,9.0564 -3.16974,9.0564 l 2.94333,12.45255 -1.81128,1.58487 -12.90537,-7.69794 z"
       id="path3789"
       inkscape:connector-curvature="0" />
    <text
       xml:space="preserve"
       style="font-size:14px;font-style:normal;font-weight:normal;line-height:125%;letter-spacing:0px;word-spacing:0px;fill:#803300;fill-opacity:1;stroke:none;font-family:Sans"
       x="370.02661"
       y="403.25296"
       id="text3791"
       sodipodi:linespacing="125%"><tspan
         id="tspan3793"
         sodipodi:role="line"
         x="370.02661"
         y="403.25296">Areia</tspan></text>
    <text
       sodipodi:linespacing="125%"
       id="text3795"
       y="412.53577"
       x="282.63232"
       style="font-size:14px;font-style:normal;font-weight:normal;line-height:125%;letter-spacing:0px;word-spacing:0px;fill:#000000;fill-opacity:1;stroke:none;font-family:Sans"
       xml:space="preserve"><tspan
         y="412.53577"
         x="282.63232"
         sodipodi:role="line"
         id="tspan3797">Buraco</tspan></text>
    <path
       style="fill:#000000;stroke:#000000;stroke-width:1px;stroke-linecap:butt;stroke-linejoin:miter;stroke-opacity:1"
       d="m 285.72948,426.43652 2.2641,-5.66026 2.94333,4.75462 -1.35846,2.49051 z"
       id="path3799"
       inkscape:connector-curvature="0" />
  </g>
</svg>
